# xmcd
#
# Track frame offsets:
# 150
# 21265
# 35685
# 50654
# 65164
# 79406
# 93199
# 105139
# 124079
# 140184
# 153482
# 168314
# 180099
# 198569
# 214762
# 230132
# 244321
# 256927
# 273614
# 291976
# 311359
#
# Disc length: 4304 seconds
#
#
# Revision: 0
# Processed by: cddbd v1.5.1PL0 Copyright (c) Steve Scherf et al.
# Submitted via: FreeRIP 2.80 
#
DISCID=3910ce15
DTITLE=Alfredo Sadel - The Best
DYEAR=1900
DGENRE=Ballad
TTITLE0=Granada
TTITLE1=Querer con la guitarra
TTITLE2=Tamborin
TTITLE3=Volver
TTITLE4=Amor de mis amores
TTITLE5=Mi cancion
TTITLE6=Desesperanza
TTITLE7=No me olvides
TTITLE8=Yo soy aquel canto
TTITLE9=Solamente una vez
TTITLE10=Humanidad
TTITLE11=Dominio
TTITLE12=Nocturnal
TTITLE13=Tu no comprendes
TTITLE14=El hombre de hierro
TTITLE15=Cancion sin titulo
TTITLE16=Señora maria
TTITLE17=Amores de estudiante
TTITLE18=Toledo
TTITLE19=Golondrinas del tiempo
TTITLE20=Alma llanera
EXTD=
EXTT0=
EXTT1=
EXTT2=
EXTT3=
EXTT4=
EXTT5=
EXTT6=
EXTT7=
EXTT8=
EXTT9=
EXTT10=
EXTT11=
EXTT12=
EXTT13=
EXTT14=
EXTT15=
EXTT16=
EXTT17=
EXTT18=
EXTT19=
EXTT20=
PLAYORDER=
